<svg xmlns="http://www.w3.org/2000/svg" xmlns:xlink="http://www.w3.org/1999/xlink" viewBox="0 0 400 400"><defs><style>.cls-1{fill:none;}.cls-2{isolation:isolate;}.cls-3{fill:#231916;}.cls-4{clip-path:url(#clip-path);}.cls-5{mix-blend-mode:multiply;}.cls-6{fill:#90aa30;}.cls-7{fill:#d4e05c;}.cls-8{fill:#dc3c14;}.cls-9{fill:#009ae1;}.cls-10{fill:#c7c4c0;}.cls-11{fill:#009394;}.cls-12{fill:#fde29e;}.cls-13{fill:#f08b42;}.cls-14{fill:#7cba28;}.cls-15{fill:#a38178;}.cls-16{fill:#c61729;}.cls-17{fill:#e4004f;}.cls-18{fill:#6b8b39;}.cls-19{fill:#d3e8c7;}.cls-20{fill:#01b4bb;}.cls-21{fill:#ffdf00;}.cls-22{fill:#009fe7;}.cls-23{fill:#d2bb00;}.cls-24{fill:#c3d424;}.cls-25{fill:#eca568;}.cls-26{fill:#ddd7c2;}.cls-27{fill:#e3007f;}.cls-28{fill:#f8bb00;}.cls-29{fill:#ede700;}.cls-30{fill:#e5e400;}.cls-31{fill:#93bc69;}.cls-32{fill:#b0a890;}.cls-33{fill:#009fc9;}.cls-34{fill:#67c6f1;}.cls-35{fill:#df1615;}.cls-36{fill:#9a6228;}.cls-37{fill:#ed761f;}.cls-38{fill:#007047;}.cls-39{fill:#fff000;}.cls-40{fill:#c7b8af;}.cls-41{fill:#a0c9d7;}.cls-42{fill:#d68d0f;}.cls-43{fill:#d7c900;}.cls-44{fill:#005bab;}</style><clipPath id="clip-path"><path class="cls-1" d="M313.18,149.17A113.18,113.18,0,1,1,200,36,113.18,113.18,0,0,1,313.18,149.17Z"/></clipPath></defs><g class="cls-2"><g id="Layer_1" data-name="Layer 1"><path class="cls-3" d="M221.42,341H202.19a.82.82,0,0,0-.82.82v3a.82.82,0,0,0,.82.82h7.11v20.19a.84.84,0,0,0,.82.82h3.37a.85.85,0,0,0,.83-.82V345.59h7.1a.82.82,0,0,0,.82-.82v-3A.81.81,0,0,0,221.42,341Z"/><path class="cls-3" d="M141,341.08a.75.75,0,0,0-.74-.47h-.36a.8.8,0,0,0-.74.48l-11.26,24.38a.78.78,0,0,0,0,.77.82.82,0,0,0,.71.36h3.16a1.22,1.22,0,0,0,1.17-.81l1.74-3.83h10.66l1.74,3.84a1.19,1.19,0,0,0,1.17.8h3.15a.82.82,0,0,0,.71-.36.78.78,0,0,0,0-.77Zm2.46,16.59h-6.86L140,350Z"/><path class="cls-3" d="M175,348.9a8,8,0,0,0-8-7.93H156.58a.82.82,0,0,0-.82.82v24a.83.83,0,0,0,.82.83h3.33a.85.85,0,0,0,.82-.83v-9.1h3.81l4.78,9.53a.74.74,0,0,0,.7.4h3.8a.83.83,0,0,0,.74-.39.88.88,0,0,0,0-.86l-4.9-9.07A8.09,8.09,0,0,0,175,348.9Zm-5,.07a3.55,3.55,0,0,1-3.45,3.56h-5.78v-6.94h5.78A3.46,3.46,0,0,1,170,349Z"/><path class="cls-3" d="M190.81,341.08a.78.78,0,0,0-.74-.47h-.36a.78.78,0,0,0-.74.48L177.7,365.47a.77.77,0,0,0,.74,1.13h3.15a1.24,1.24,0,0,0,1.18-.81l1.74-3.83h10.66l1.73,3.84a1.19,1.19,0,0,0,1.17.8h3.16a.82.82,0,0,0,.71-.36.81.81,0,0,0,0-.77Zm2.46,16.59h-6.86L189.8,350Z"/><path class="cls-3" d="M246.47,341h-3.33a.82.82,0,0,0-.82.82v9.47H230.78v-9.47A.83.83,0,0,0,230,341h-3.36a.85.85,0,0,0-.83.82v24a.85.85,0,0,0,.83.83H230a.83.83,0,0,0,.83-.83v-9.85h11.54v9.85a.83.83,0,0,0,.82.83h3.33a.85.85,0,0,0,.83-.83v-24A.85.85,0,0,0,246.47,341Z"/><path class="cls-3" d="M264.63,340.61a13.19,13.19,0,0,0-13.14,13.21A13,13,0,0,0,264.63,367a13.18,13.18,0,1,0,0-26.35Zm0,5a8.33,8.33,0,0,1,8.2,8.23,8.18,8.18,0,1,1-8.2-8.23Z"/><path class="cls-3" d="M302.54,341H299.2a.81.81,0,0,0-.82.82v14.67L283.5,340.65l0,0h-1a.82.82,0,0,0-.82.78v24.38a.85.85,0,0,0,.82.83h3.3a.83.83,0,0,0,.82-.83V350.51l14.94,16.41,0,0h.94a.81.81,0,0,0,.81-.79V341.79A.84.84,0,0,0,302.54,341Z"/><path class="cls-3" d="M123.73,340.47h-.34a1.16,1.16,0,0,0-1,.52l-11.75,15.15h0c-.75-1-11.48-14.79-11.75-15.15a1.17,1.17,0,0,0-1-.52h-.35a.82.82,0,0,0-.82.78v24.38a.84.84,0,0,0,.82.82h3.3a.83.83,0,0,0,.83-.82V351.76c1.26,1.62,7.5,9.7,7.65,9.88a1.34,1.34,0,0,0,1,.6h.69a1.36,1.36,0,0,0,1-.6c.15-.18,6.41-8.28,7.65-9.89v13.88a.82.82,0,0,0,.82.82h3.3a.84.84,0,0,0,.82-.82V341.25A.81.81,0,0,0,123.73,340.47Z"/><path class="cls-3" d="M106.39,290.63H93.9a1.19,1.19,0,0,1-1.19-1.19v-5.12a1.19,1.19,0,0,1,1.19-1.19h33.18a1.19,1.19,0,0,1,1.19,1.19v5.12a1.19,1.19,0,0,1-1.19,1.19H114.59V325.7a1.23,1.23,0,0,1-1.2,1.18h-5.81a1.23,1.23,0,0,1-1.19-1.18Z"/><path class="cls-3" d="M154.27,282.52a22.5,22.5,0,1,1-22.43,22.55A22.45,22.45,0,0,1,154.27,282.52Zm0,36.86A14.37,14.37,0,1,0,140,305.07,14.4,14.4,0,0,0,154.27,319.38Z"/><path class="cls-3" d="M185.1,284.64a1.48,1.48,0,0,1,1.5-1.5h5.5a1.52,1.52,0,0,1,1.49,1.5v16.87l15.74-17.74a1.49,1.49,0,0,1,1.19-.63h6.25a1.33,1.33,0,0,1,1,2.25l-16.31,18.37L219,324.69a1.37,1.37,0,0,1-1.12,2.19H211a1.34,1.34,0,0,1-1.12-.44l-16.31-20.12v19.06a1.52,1.52,0,0,1-1.49,1.5h-5.5a1.47,1.47,0,0,1-1.5-1.5Z"/><path class="cls-3" d="M237.79,305.82,223.54,285a1.16,1.16,0,0,1,1-1.81h6.36a1.28,1.28,0,0,1,1,.56l10,14.37,10-14.37a1.22,1.22,0,0,1,1-.56h6.44a1.16,1.16,0,0,1,1,1.81l-14.43,20.81V325.7a1.22,1.22,0,0,1-1.19,1.18H239a1.18,1.18,0,0,1-1.19-1.18Z"/><path class="cls-3" d="M284.8,282.52a22.5,22.5,0,1,1-22.43,22.55A22.45,22.45,0,0,1,284.8,282.52Zm0,36.86a14.37,14.37,0,1,0-14.31-14.31A14.4,14.4,0,0,0,284.8,319.38Z"/><g class="cls-4"><g class="cls-5"><rect class="cls-6" x="27.01" y="164.28" width="382.86" height="6.67" transform="translate(-54.55 203.5) rotate(-44.99)"/><rect class="cls-7" x="39.3" y="178.83" width="382.85" height="2.16" transform="translate(-59.63 215.84) rotate(-45)"/><rect class="cls-8" x="14.72" y="153.71" width="382.85" height="3.24" transform="translate(-49.44 191.36) rotate(-45.02)"/><rect class="cls-9" x="51.59" y="188.96" width="382.85" height="6.47" transform="translate(-64.73 228.07) rotate(-44.99)"/><rect class="cls-10" x="63.88" y="202.27" width="382.85" height="4.45" transform="translate(-69.82 240.42) rotate(-45)"/><rect class="cls-11" x="2.43" y="139.99" width="382.86" height="6.07" transform="translate(-44.35 179.02) rotate(-45.01)"/><rect class="cls-12" x="-9.86" y="128.58" width="382.85" height="4.31" transform="translate(-39.26 166.75) rotate(-45.02)"/><rect class="cls-13" x="-34.44" y="101.57" width="382.85" height="9.19" transform="translate(-29.09 142.1) rotate(-45)"/><rect class="cls-14" x="-22.15" y="116.08" width="382.85" height="4.74" transform="translate(-34.18 154.39) rotate(-45)"/><rect class="cls-15" x="-46.74" y="93.06" width="382.85" height="1.62" transform="translate(-24 129.8) rotate(-45)"/></g><g class="cls-5"><rect class="cls-16" x="8.57" y="69.88" width="382.86" height="2.16"/><rect class="cls-17" x="8.57" y="137.6" width="382.86" height="5.78"/><rect class="cls-18" x="8.57" y="225.17" width="382.86" height="4.44"/><rect class="cls-19" x="8.57" y="189.18" width="382.86" height="6.9"/><rect class="cls-20" x="8.57" y="103.05" width="382.86" height="5.33"/><rect class="cls-21" x="8.57" y="83.89" width="382.86" height="8.89"/><rect class="cls-22" x="8.57" y="155.71" width="382.86" height="4.32"/><rect class="cls-23" x="8.57" y="173.63" width="382.86" height="3.24"/><rect class="cls-24" x="8.57" y="118.66" width="382.86" height="8.89"/><rect class="cls-25" x="8.57" y="205.72" width="382.86" height="8.59"/></g><g class="cls-5"><rect class="cls-26" x="153.74" y="0.76" width="6.47" height="382.86" transform="translate(-89.92 167.29) rotate(-45)"/><rect class="cls-27" x="203.4" y="-48.4" width="5.48" height="382.85" transform="translate(-40.76 187.66) rotate(-45)"/><rect class="cls-28" x="215.1" y="-60.69" width="6.67" height="382.86" transform="translate(-28.47 192.75) rotate(-45)"/><rect class="cls-29" x="253.86" y="-97.56" width="2.89" height="382.85" transform="translate(8.4 208.02) rotate(-45)"/><rect class="cls-30" x="239.78" y="-85.27" width="6.47" height="382.85" transform="translate(-3.89 202.93) rotate(-45)"/><rect class="cls-24" x="229.65" y="-72.98" width="2.16" height="382.85" transform="translate(-16.18 197.83) rotate(-45)"/><rect class="cls-31" x="191.7" y="-36.1" width="4.31" height="382.85" transform="translate(-53.05 182.57) rotate(-45)"/><rect class="cls-32" x="166.9" y="-11.52" width="4.74" height="382.85" transform="translate(-77.63 172.38) rotate(-45)"/><rect class="cls-33" x="143.61" y="13.06" width="2.16" height="382.85" transform="translate(-102.22 162.2) rotate(-45)"/><rect class="cls-34" x="177.12" y="-23.81" width="8.89" height="382.85" transform="translate(-65.34 177.48) rotate(-45)"/></g><g class="cls-5"><rect class="cls-35" x="169.7" y="-42.25" width="8.45" height="382.86"/><rect class="cls-36" x="120.3" y="-42.25" width="2.96" height="382.86"/><rect class="cls-37" x="223.38" y="-42.25" width="5.39" height="382.86"/><rect class="cls-38" x="241.3" y="-42.25" width="4.3" height="382.86"/><rect class="cls-39" x="257.6" y="-42.25" width="6.47" height="382.86"/><rect class="cls-40" x="275.63" y="-41.4" width="5.19" height="382.01"/><rect class="cls-41" x="135.46" y="-42.25" width="7.41" height="382.86"/><rect class="cls-42" x="189.69" y="-42.25" width="3.24" height="382.86"/><rect class="cls-43" x="206.02" y="-42.25" width="5.34" height="382.86"/><rect class="cls-44" x="154.54" y="-42.25" width="4" height="382.86"/></g></g></g></g></svg>